<mxfile host="Electron" modified="2024-02-27T11:18:50.812Z" agent="Mozilla/5.0 (Windows NT 10.0; Win64; x64) AppleWebKit/537.36 (KHTML, like Gecko) draw.io/23.1.5 Chrome/120.0.6099.109 Electron/28.1.0 Safari/537.36" etag="nEq1Kqd2EivjyA3NCAY4" version="23.1.5" type="device">
  <diagram name="Страница — 1" id="3SnLLjtboGHFOQqqeGNn">
    <mxGraphModel dx="989" dy="659" grid="1" gridSize="10" guides="1" tooltips="1" connect="1" arrows="1" fold="1" page="1" pageScale="1" pageWidth="827" pageHeight="1169" math="0" shadow="0">
      <root>
        <mxCell id="0" />
        <mxCell id="1" parent="0" />
        <mxCell id="rh4jVyTzxI-TO4MzRhgO-5" style="edgeStyle=orthogonalEdgeStyle;rounded=0;orthogonalLoop=1;jettySize=auto;html=1;exitX=0.5;exitY=0;exitDx=0;exitDy=0;entryX=0;entryY=0.5;entryDx=0;entryDy=0;" edge="1" parent="1" source="rh4jVyTzxI-TO4MzRhgO-1" target="rh4jVyTzxI-TO4MzRhgO-4">
          <mxGeometry relative="1" as="geometry" />
        </mxCell>
        <mxCell id="rh4jVyTzxI-TO4MzRhgO-28" value="1" style="edgeLabel;html=1;align=center;verticalAlign=middle;resizable=0;points=[];" vertex="1" connectable="0" parent="rh4jVyTzxI-TO4MzRhgO-5">
          <mxGeometry x="0.73" relative="1" as="geometry">
            <mxPoint as="offset" />
          </mxGeometry>
        </mxCell>
        <mxCell id="rh4jVyTzxI-TO4MzRhgO-11" style="edgeStyle=orthogonalEdgeStyle;rounded=0;orthogonalLoop=1;jettySize=auto;html=1;exitX=0.5;exitY=1;exitDx=0;exitDy=0;entryX=0;entryY=0.5;entryDx=0;entryDy=0;" edge="1" parent="1" source="rh4jVyTzxI-TO4MzRhgO-1" target="rh4jVyTzxI-TO4MzRhgO-8">
          <mxGeometry relative="1" as="geometry" />
        </mxCell>
        <mxCell id="rh4jVyTzxI-TO4MzRhgO-26" value="N" style="edgeLabel;html=1;align=center;verticalAlign=middle;resizable=0;points=[];" vertex="1" connectable="0" parent="rh4jVyTzxI-TO4MzRhgO-11">
          <mxGeometry x="0.8321" relative="1" as="geometry">
            <mxPoint as="offset" />
          </mxGeometry>
        </mxCell>
        <mxCell id="rh4jVyTzxI-TO4MzRhgO-13" style="edgeStyle=orthogonalEdgeStyle;rounded=0;orthogonalLoop=1;jettySize=auto;html=1;exitX=0.5;exitY=1;exitDx=0;exitDy=0;entryX=0;entryY=0.5;entryDx=0;entryDy=0;" edge="1" parent="1" source="rh4jVyTzxI-TO4MzRhgO-1" target="rh4jVyTzxI-TO4MzRhgO-12">
          <mxGeometry relative="1" as="geometry" />
        </mxCell>
        <mxCell id="rh4jVyTzxI-TO4MzRhgO-27" value="1" style="edgeLabel;html=1;align=center;verticalAlign=middle;resizable=0;points=[];" vertex="1" connectable="0" parent="rh4jVyTzxI-TO4MzRhgO-13">
          <mxGeometry x="0.8736" y="-2" relative="1" as="geometry">
            <mxPoint as="offset" />
          </mxGeometry>
        </mxCell>
        <mxCell id="rh4jVyTzxI-TO4MzRhgO-36" style="edgeStyle=orthogonalEdgeStyle;rounded=0;orthogonalLoop=1;jettySize=auto;html=1;exitX=0.25;exitY=1;exitDx=0;exitDy=0;entryX=0.75;entryY=0;entryDx=0;entryDy=0;" edge="1" parent="1" source="rh4jVyTzxI-TO4MzRhgO-1" target="rh4jVyTzxI-TO4MzRhgO-34">
          <mxGeometry relative="1" as="geometry" />
        </mxCell>
        <mxCell id="rh4jVyTzxI-TO4MzRhgO-1" value="PlotWindow" style="rounded=0;whiteSpace=wrap;html=1;fillColor=#dae8fc;strokeColor=#6c8ebf;" vertex="1" parent="1">
          <mxGeometry x="240" y="360" width="120" height="40" as="geometry" />
        </mxCell>
        <mxCell id="rh4jVyTzxI-TO4MzRhgO-3" style="edgeStyle=orthogonalEdgeStyle;rounded=0;orthogonalLoop=1;jettySize=auto;html=1;exitX=1;exitY=0.5;exitDx=0;exitDy=0;entryX=0;entryY=0.5;entryDx=0;entryDy=0;" edge="1" parent="1" source="rh4jVyTzxI-TO4MzRhgO-2" target="rh4jVyTzxI-TO4MzRhgO-1">
          <mxGeometry relative="1" as="geometry" />
        </mxCell>
        <mxCell id="rh4jVyTzxI-TO4MzRhgO-29" value="N" style="edgeLabel;html=1;align=center;verticalAlign=middle;resizable=0;points=[];" vertex="1" connectable="0" parent="rh4jVyTzxI-TO4MzRhgO-3">
          <mxGeometry x="0.1821" y="-1" relative="1" as="geometry">
            <mxPoint as="offset" />
          </mxGeometry>
        </mxCell>
        <mxCell id="rh4jVyTzxI-TO4MzRhgO-35" style="edgeStyle=orthogonalEdgeStyle;rounded=0;orthogonalLoop=1;jettySize=auto;html=1;exitX=0.5;exitY=1;exitDx=0;exitDy=0;entryX=0.25;entryY=0;entryDx=0;entryDy=0;" edge="1" parent="1" source="rh4jVyTzxI-TO4MzRhgO-2" target="rh4jVyTzxI-TO4MzRhgO-34">
          <mxGeometry relative="1" as="geometry" />
        </mxCell>
        <mxCell id="rh4jVyTzxI-TO4MzRhgO-2" value="MainWindow" style="rounded=0;whiteSpace=wrap;html=1;fillColor=#dae8fc;strokeColor=#6c8ebf;" vertex="1" parent="1">
          <mxGeometry x="40" y="360" width="120" height="40" as="geometry" />
        </mxCell>
        <mxCell id="rh4jVyTzxI-TO4MzRhgO-4" value="PlotObj" style="rounded=0;whiteSpace=wrap;html=1;fillColor=#fff2cc;strokeColor=#d6b656;" vertex="1" parent="1">
          <mxGeometry x="360" y="240" width="120" height="40" as="geometry" />
        </mxCell>
        <mxCell id="rh4jVyTzxI-TO4MzRhgO-16" style="edgeStyle=orthogonalEdgeStyle;rounded=0;orthogonalLoop=1;jettySize=auto;html=1;exitX=0.5;exitY=0;exitDx=0;exitDy=0;entryX=0;entryY=0.5;entryDx=0;entryDy=0;" edge="1" parent="1" source="rh4jVyTzxI-TO4MzRhgO-6" target="rh4jVyTzxI-TO4MzRhgO-15">
          <mxGeometry relative="1" as="geometry">
            <Array as="points">
              <mxPoint x="580" y="380" />
            </Array>
          </mxGeometry>
        </mxCell>
        <mxCell id="rh4jVyTzxI-TO4MzRhgO-22" value="1" style="edgeLabel;html=1;align=center;verticalAlign=middle;resizable=0;points=[];" vertex="1" connectable="0" parent="rh4jVyTzxI-TO4MzRhgO-16">
          <mxGeometry x="0.5979" y="-1" relative="1" as="geometry">
            <mxPoint x="8" y="-1" as="offset" />
          </mxGeometry>
        </mxCell>
        <mxCell id="rh4jVyTzxI-TO4MzRhgO-18" style="edgeStyle=orthogonalEdgeStyle;rounded=0;orthogonalLoop=1;jettySize=auto;html=1;exitX=0.5;exitY=0;exitDx=0;exitDy=0;entryX=0;entryY=0.5;entryDx=0;entryDy=0;" edge="1" parent="1" source="rh4jVyTzxI-TO4MzRhgO-6" target="rh4jVyTzxI-TO4MzRhgO-17">
          <mxGeometry relative="1" as="geometry" />
        </mxCell>
        <mxCell id="rh4jVyTzxI-TO4MzRhgO-23" value="N" style="edgeLabel;html=1;align=center;verticalAlign=middle;resizable=0;points=[];" vertex="1" connectable="0" parent="rh4jVyTzxI-TO4MzRhgO-18">
          <mxGeometry x="0.6454" y="-1" relative="1" as="geometry">
            <mxPoint x="19" y="-1" as="offset" />
          </mxGeometry>
        </mxCell>
        <mxCell id="rh4jVyTzxI-TO4MzRhgO-6" value="Graph" style="rounded=0;whiteSpace=wrap;html=1;fillColor=#fff2cc;strokeColor=#d6b656;" vertex="1" parent="1">
          <mxGeometry x="520" y="440" width="120" height="40" as="geometry" />
        </mxCell>
        <mxCell id="rh4jVyTzxI-TO4MzRhgO-7" value="QCPGraph" style="rounded=0;whiteSpace=wrap;html=1;fillColor=#dae8fc;strokeColor=#6c8ebf;" vertex="1" parent="1">
          <mxGeometry x="520" y="600" width="120" height="40" as="geometry" />
        </mxCell>
        <mxCell id="rh4jVyTzxI-TO4MzRhgO-10" style="edgeStyle=orthogonalEdgeStyle;rounded=0;orthogonalLoop=1;jettySize=auto;html=1;exitX=0.5;exitY=1;exitDx=0;exitDy=0;entryX=0;entryY=0.25;entryDx=0;entryDy=0;" edge="1" parent="1" source="rh4jVyTzxI-TO4MzRhgO-8" target="rh4jVyTzxI-TO4MzRhgO-7">
          <mxGeometry relative="1" as="geometry" />
        </mxCell>
        <mxCell id="rh4jVyTzxI-TO4MzRhgO-25" value="1" style="edgeLabel;html=1;align=center;verticalAlign=middle;resizable=0;points=[];" vertex="1" connectable="0" parent="rh4jVyTzxI-TO4MzRhgO-10">
          <mxGeometry x="0.6704" relative="1" as="geometry">
            <mxPoint as="offset" />
          </mxGeometry>
        </mxCell>
        <mxCell id="rh4jVyTzxI-TO4MzRhgO-30" style="edgeStyle=orthogonalEdgeStyle;rounded=0;orthogonalLoop=1;jettySize=auto;html=1;exitX=0.5;exitY=0;exitDx=0;exitDy=0;entryX=0;entryY=0.75;entryDx=0;entryDy=0;" edge="1" parent="1" source="rh4jVyTzxI-TO4MzRhgO-8" target="rh4jVyTzxI-TO4MzRhgO-6">
          <mxGeometry relative="1" as="geometry" />
        </mxCell>
        <mxCell id="rh4jVyTzxI-TO4MzRhgO-31" value="1" style="edgeLabel;html=1;align=center;verticalAlign=middle;resizable=0;points=[];" vertex="1" connectable="0" parent="rh4jVyTzxI-TO4MzRhgO-30">
          <mxGeometry x="0.6053" y="-2" relative="1" as="geometry">
            <mxPoint as="offset" />
          </mxGeometry>
        </mxCell>
        <mxCell id="rh4jVyTzxI-TO4MzRhgO-8" value="PlotItem" style="rounded=0;whiteSpace=wrap;html=1;" vertex="1" parent="1">
          <mxGeometry x="360" y="520" width="120" height="40" as="geometry" />
        </mxCell>
        <mxCell id="rh4jVyTzxI-TO4MzRhgO-14" style="edgeStyle=orthogonalEdgeStyle;rounded=0;orthogonalLoop=1;jettySize=auto;html=1;exitX=0.5;exitY=0;exitDx=0;exitDy=0;entryX=0;entryY=0.75;entryDx=0;entryDy=0;" edge="1" parent="1" source="rh4jVyTzxI-TO4MzRhgO-12" target="rh4jVyTzxI-TO4MzRhgO-7">
          <mxGeometry relative="1" as="geometry">
            <Array as="points">
              <mxPoint x="420" y="630" />
            </Array>
          </mxGeometry>
        </mxCell>
        <mxCell id="rh4jVyTzxI-TO4MzRhgO-21" value="N" style="edgeLabel;html=1;align=center;verticalAlign=middle;resizable=0;points=[];fontSize=11;labelBackgroundColor=default;" vertex="1" connectable="0" parent="rh4jVyTzxI-TO4MzRhgO-14">
          <mxGeometry x="0.4799" y="-1" relative="1" as="geometry">
            <mxPoint x="9" y="-1" as="offset" />
          </mxGeometry>
        </mxCell>
        <mxCell id="rh4jVyTzxI-TO4MzRhgO-12" value="QCPL::Plot" style="rounded=0;whiteSpace=wrap;html=1;fillColor=#dae8fc;strokeColor=#6c8ebf;" vertex="1" parent="1">
          <mxGeometry x="360" y="680" width="120" height="40" as="geometry" />
        </mxCell>
        <mxCell id="rh4jVyTzxI-TO4MzRhgO-15" value="DataSource" style="rounded=0;whiteSpace=wrap;html=1;" vertex="1" parent="1">
          <mxGeometry x="660" y="360" width="120" height="40" as="geometry" />
        </mxCell>
        <mxCell id="rh4jVyTzxI-TO4MzRhgO-17" value="Modifier" style="rounded=0;whiteSpace=wrap;html=1;" vertex="1" parent="1">
          <mxGeometry x="660" y="280" width="120" height="40" as="geometry" />
        </mxCell>
        <mxCell id="rh4jVyTzxI-TO4MzRhgO-19" value="Visual" style="rounded=0;whiteSpace=wrap;html=1;fillColor=#dae8fc;strokeColor=#6c8ebf;" vertex="1" parent="1">
          <mxGeometry x="80" y="120" width="120" height="40" as="geometry" />
        </mxCell>
        <mxCell id="rh4jVyTzxI-TO4MzRhgO-20" value="Data" style="rounded=0;whiteSpace=wrap;html=1;fillColor=#fff2cc;strokeColor=#d6b656;" vertex="1" parent="1">
          <mxGeometry x="80" y="170" width="120" height="40" as="geometry" />
        </mxCell>
        <mxCell id="rh4jVyTzxI-TO4MzRhgO-34" value="Operations" style="rounded=0;whiteSpace=wrap;html=1;" vertex="1" parent="1">
          <mxGeometry x="120" y="480" width="120" height="40" as="geometry" />
        </mxCell>
      </root>
    </mxGraphModel>
  </diagram>
</mxfile>
